<svg width="37" height="34" viewBox="0 0 37 34" xmlns="http://www.w3.org/2000/svg">
<path d="M34.5299 26.8762V25.2571L36.3648 23.9619C36.5316 23.8 36.6984 23.6381 36.5316 23.4762L34.8635 20.7238C34.8635 20.5619 34.5299 20.5619 34.3631 20.5619L32.3613 21.3714C31.8609 21.0476 31.3605 20.7238 30.86 20.5619L30.5264 18.4571C30.5264 18.2952 30.3596 18.1333 30.1928 18.1333H26.8566C26.5229 18.1333 26.3561 18.2952 26.3561 18.4571L26.0225 20.5619C25.5221 20.8857 25.1885 21.0476 24.688 21.3714L22.6863 20.5619C22.5195 20.5619 22.3527 20.5619 22.1859 20.7238L20.5177 23.4762C20.5177 23.6381 20.5177 23.8 20.6846 23.9619L22.5195 25.2571V26.8762L20.6846 28.1714C20.5177 28.3333 20.3509 28.4952 20.5177 28.6571L22.1859 31.4095C22.3527 31.5714 22.5195 31.5714 22.6863 31.5714L24.688 30.7619C25.0216 31.0857 25.5221 31.4095 26.0225 31.5714L26.3561 33.6762C26.5229 33.8381 26.6898 34 26.8566 34H30.1928C30.3596 34 30.5264 33.8381 30.5264 33.6762L30.86 31.5714C31.3605 31.2476 31.6941 31.0857 32.1945 30.7619L34.1963 31.4095C34.3631 31.4095 34.5299 31.4095 34.6967 31.2476L36.3648 28.4952C36.5316 28.3333 36.5316 28.1714 36.3648 28.1714L34.5299 26.8762ZM28.3579 28.3333C27.0234 28.3333 25.8557 27.2 25.8557 25.9048C25.8557 24.6095 27.0234 23.4762 28.3579 23.4762C29.6924 23.4762 30.86 24.6095 30.86 25.9048C30.86 27.2 29.6924 28.3333 28.3579 28.3333ZM16.6811 25.9048C16.6811 19.5905 21.8522 14.5714 28.3579 14.5714C31.6941 14.5714 34.5299 15.8667 36.6984 17.9714V3.2381C36.6984 1.45714 35.1971 0 33.3622 0H3.33622C1.5013 0 0 1.45714 0 3.2381V29.1429C0 30.9238 1.5013 32.381 3.33622 32.381H18.8496C17.5152 30.6 16.6811 28.3333 16.6811 25.9048ZM3.33622 3.2381H33.3622V8.09524H3.33622V3.2381Z" />
</svg>
