<svg width="35" height="44" viewBox="0 0 35 44" xmlns="http://www.w3.org/2000/svg">
<path d="M17.4221 0C15.1342 0 12.8687 0.450635 10.7549 1.32618C8.64118 2.20172 6.72059 3.48502 5.1028 5.1028C1.83553 8.37007 0 12.8014 0 17.4221C0 25.1226 5.00013 31.6559 11.9167 33.973C12.7878 34.1124 13.0665 33.5723 13.0665 33.1019V30.1576C8.24063 31.2029 7.21273 27.823 7.21273 27.823C6.41132 25.8021 5.27888 25.262 5.27888 25.262C3.69348 24.1818 5.40084 24.2167 5.40084 24.2167C7.14304 24.3386 8.06641 26.0111 8.06641 26.0111C9.58213 28.6593 12.1432 27.8753 13.1362 27.4572C13.293 26.3247 13.746 25.5582 14.2338 25.1226C10.3661 24.6871 6.30679 23.1888 6.30679 16.551C6.30679 14.6171 6.96882 13.0665 8.10126 11.8296C7.92704 11.394 7.31727 9.58213 8.27548 7.23015C8.27548 7.23015 9.73893 6.75976 13.0665 9.0072C14.4429 8.62392 15.9412 8.43228 17.4221 8.43228C18.9029 8.43228 20.4012 8.62392 21.7776 9.0072C25.1052 6.75976 26.5686 7.23015 26.5686 7.23015C27.5269 9.58213 26.9171 11.394 26.7429 11.8296C27.8753 13.0665 28.5373 14.6171 28.5373 16.551C28.5373 23.2062 24.4606 24.6696 20.5755 25.1052C21.2026 25.6453 21.7776 26.708 21.7776 28.3283V33.1019C21.7776 33.5723 22.0563 34.1298 22.9449 33.973C29.8614 31.6385 34.8441 25.1226 34.8441 17.4221C34.8441 15.1342 34.3935 12.8687 33.5179 10.7549C32.6424 8.64118 31.3591 6.72059 29.7413 5.1028C28.1235 3.48502 26.2029 2.20172 24.0892 1.32618C21.9755 0.450635 19.71 0 17.4221 0Z" />
</svg>
