<svg width="34" height="44" viewBox="0 0 34 44" xmlns="http://www.w3.org/2000/svg">
<path d="M14.45 5.1C10.6176 5.1 6.94221 6.62241 4.23231 9.33231C1.52241 12.0422 0 15.7176 0 19.55C0 23.3824 1.52241 27.0578 4.23231 29.7677C6.94221 32.4776 10.6176 34 14.45 34C16.3476 34 18.2266 33.6262 19.9798 32.9001C21.7329 32.1739 23.3259 31.1095 24.6677 29.7677C26.0095 28.4259 27.0739 26.8329 27.8001 25.0798C28.5262 23.3266 28.9 21.4476 28.9 19.55C28.9 15.7176 27.3776 12.0422 24.6677 9.33231C21.9578 6.62241 18.2824 5.1 14.45 5.1ZM19.55 18.7C18.4228 18.7 17.3418 18.2522 16.5448 17.4552C15.7478 16.6582 15.3 15.5772 15.3 14.45C15.3 13.3228 15.7478 12.2418 16.5448 11.4448C17.3418 10.6478 18.4228 10.2 19.55 10.2C20.6772 10.2 21.7582 10.6478 22.5552 11.4448C23.3522 12.2418 23.8 13.3228 23.8 14.45C23.8 15.5772 23.3522 16.6582 22.5552 17.4552C21.7582 18.2522 20.6772 18.7 19.55 18.7ZM29.75 0C28.6228 0 27.5418 0.447767 26.7448 1.2448C25.9478 2.04183 25.5 3.12283 25.5 4.25C25.5 5.37717 25.9478 6.45817 26.7448 7.2552C27.5418 8.05223 28.6228 8.5 29.75 8.5C30.3081 8.5 30.8608 8.39007 31.3764 8.17649C31.892 7.96291 32.3606 7.64985 32.7552 7.2552C33.1499 6.86056 33.4629 6.39204 33.6765 5.8764C33.8901 5.36077 34 4.80812 34 4.25C34 3.12283 33.5522 2.04183 32.7552 1.2448C31.9582 0.447767 30.8772 0 29.75 0Z" />
</svg>
